<?xml version="1.0" encoding="utf-8"?>
<!-- Generator: Adobe Illustrator 24.1.2, SVG Export Plug-In . SVG Version: 6.00 Build 0)  -->
<svg version="1.1" id="Layer_1" xmlns="http://www.w3.org/2000/svg" xmlns:xlink="http://www.w3.org/1999/xlink" x="0px" y="0px"
	 viewBox="0 0 50 39" style="enable-background:new 0 0 50 39;" xml:space="preserve">
<style type="text/css">
	.st0{display:none;}
	.st1{display:inline;}
	.st2{font-family:'Autumn';}
	.st3{font-size:10px;}
	.st4{display:inline;fill-rule:evenodd;clip-rule:evenodd;fill:#DA0500;}
	.st5{display:inline;fill-rule:evenodd;clip-rule:evenodd;fill:#0000FF;}
	.st6{display:none;fill:#FFFFFF;stroke:#F11900;stroke-width:5;stroke-miterlimit:10;}
	.st7{display:inline;fill:#F11900;}
</style>
<desc>Created with Sketch.</desc>
<g class="st0">
	<text transform="matrix(1 0 0 1 5.5847 35.7444)" class="st1 st2 st3">Harmony</text>
	<polygon class="st4" points="6,27.8 3,15.3 18.4,24 25,27.8 	"/>
	<polygon class="st4" points="25,27.8 31.6,24 47,15.3 43.9,27.8 	"/>
	<polygon class="st5" points="16.5,27.8 18.4,24 25,10.3 31.6,24 33.5,27.8 	"/>
	<circle class="st4" cx="25" cy="3.3" r="2"/>
	<circle class="st5" cx="48" cy="10.3" r="2"/>
	<circle class="st5" cx="2" cy="10.3" r="2"/>
</g>
<rect class="st6" width="50" height="39"/>
<g id="loicnondah_3_">
	<g id="letter_3_">
		<polygon class="st0" points="17.2,33.6 17.3,9.8 20.2,9.8 20.7,7.1 10.6,7.1 11.2,9.8 13.7,9.9 13.7,36.7 23.3,36.7 23.3,33.6 		
			"/>
		<rect x="36.3" y="7" width="3.1" height="11.5"/>
		<polygon points="36.3,19.7 39.4,19.7 39.4,36.6 37.4,34.6 23.5,20.3 23.5,30.2 20.4,30.2 20.4,12.2 36.3,29.4 		"/>
		<polyline points="14.1,9.8 14.1,36.6 23.5,36.6 23.5,33.5 17.2,33.5 17.2,9.8 14.1,9.8 		"/>
		<polyline points="19.5,7.7 19.1,9.8 12.1,9.8 11.7,7.7 19.5,7.7 		"/>
		<polygon points="19.6,6.7 20.1,3.8 18.5,4.5 19,5.2 16.4,5.1 16.8,4.3 15.6,2.3 14.3,4.3 14.8,5.2 12.2,5.1 12.6,4.4 11,3.8 
			11.6,6.7 		"/>
	</g>
</g>
<g class="st0">
	<path class="st7" d="M19.2,15l-3.9,9.7c-0.1,0.3-0.3,0.6-0.7,0.8c-0.3,0.2-0.7,0.3-1,0.3h-3.4c-0.6,0-0.9-0.2-0.9-0.7
		c0-0.1,0-0.2,0.1-0.4l1.5-3.8H9.4l-1.5,3.8c-0.1,0.3-0.3,0.6-0.7,0.8c-0.3,0.2-0.7,0.3-1,0.3H2.7c-0.6,0-0.9-0.2-0.9-0.7
		c0-0.1,0-0.2,0.1-0.4L5.8,15c0.1-0.3,0.4-0.6,0.7-0.8c0.3-0.2,0.7-0.3,1-0.3h3.4c0.6,0,0.9,0.2,0.9,0.7c0,0.1,0,0.2-0.1,0.4
		l-1.4,3.6h1.6l1.5-3.6c0.1-0.3,0.4-0.6,0.7-0.8c0.3-0.2,0.7-0.3,1-0.3h3.4c0.6,0,0.9,0.2,0.9,0.7C19.3,14.8,19.3,14.9,19.2,15z"/>
	<path class="st7" d="M33.4,16.1l-3,7.4c-0.3,0.6-0.7,1.1-1.4,1.6c-0.7,0.4-1.3,0.7-2,0.7h-8.4c-0.5,0-1-0.1-1.3-0.4
		s-0.5-0.6-0.5-1.1c0-0.2,0-0.5,0.1-0.8l3-7.4c0.3-0.6,0.7-1.1,1.4-1.6c0.7-0.4,1.4-0.7,2.1-0.7h8.4c0.5,0,1,0.1,1.3,0.4
		c0.3,0.3,0.5,0.6,0.5,1.1C33.6,15.6,33.5,15.9,33.4,16.1z M27.7,15.7h-1.6L22.7,24h1.6L27.7,15.7z"/>
	<path class="st7" d="M48,16.1l-3,7.4c-0.3,0.6-0.7,1.1-1.4,1.6c-0.7,0.4-1.3,0.7-2,0.7h-8.4c-0.5,0-1-0.1-1.3-0.4
		c-0.3-0.3-0.5-0.6-0.5-1.1c0-0.2,0-0.5,0.1-0.8l3-7.4c0.3-0.6,0.7-1.1,1.4-1.6c0.7-0.4,1.4-0.7,2.1-0.7h8.4c0.5,0,1,0.1,1.3,0.4
		c0.3,0.3,0.5,0.6,0.5,1.1C48.2,15.6,48.1,15.9,48,16.1z M42.3,15.7h-1.6L37.3,24h1.6L42.3,15.7z"/>
</g>
</svg>
